<?xml version="1.0" encoding="UTF-8" standalone="no"?>
<!DOCTYPE svg PUBLIC "-//W3C//DTD SVG 1.1//EN" "http://www.w3.org/Graphics/SVG/1.1/DTD/svg11.dtd">
<svg width="100%" height="100%" viewBox="0 0 5846 1657" version="1.1" xmlns="http://www.w3.org/2000/svg" xmlns:xlink="http://www.w3.org/1999/xlink" xml:space="preserve" xmlns:serif="http://www.serif.com/" style="fill-rule:evenodd;clip-rule:evenodd;stroke-linejoin:round;stroke-miterlimit:2;">
    <g transform="matrix(1,0,0,1,-30153.519511,-28924.778853)">
        <g transform="matrix(5.555556,0,0,5.555556,9294.010556,149.778917)">
            <g transform="matrix(1,0,0,1,4520.1216,5475.0244)">
                <text x="-297.322px" y="0px" style="font-family:'Skia-Regular', 'Skia', sans-serif;font-size:267.891px;fill:white;">Valle</text>
            </g>
        </g>
        <g transform="matrix(5.555556,0,0,5.555556,9294.010556,149.778917)">
            <g transform="matrix(1,0,0,1,4325.3276,5248.1782)">
                <text x="-92.808px" y="0px" style="font-family:'Lexend-Thin', 'Lexend';font-weight:100;font-size:92.808px;fill:white;">T<tspan x="-56.799px " y="0px ">e</tspan>ch</text>
            </g>
        </g>
        <g transform="matrix(5.555556,0,0,5.555556,9294.010556,149.778917)">
            <g id="rect281-2" transform="matrix(1.007762,1.007762,-1.007762,1.007762,2883.363498,3604.674093)">
                <rect x="1261.233" y="301.587" width="95.009" height="95.009" style="fill:white;"/>
            </g>
        </g>
        <g transform="matrix(5.555556,0,0,5.555556,9294.010556,149.778917)">
            <g id="rect282-6" transform="matrix(1.007762,1.007762,-1.007762,1.007762,2883.363498,3604.674093)">
                <rect x="1366.936" y="195.76" width="95.009" height="95.009" style="fill:white;"/>
            </g>
        </g>
        <g transform="matrix(5.555556,0,0,5.555556,9294.010556,149.778917)">
            <g id="rect283-6" transform="matrix(1.007762,1.007762,-1.007762,1.007762,2883.363498,3604.674093)">
                <rect x="1366.936" y="301.587" width="95.009" height="95.009" style="fill:white;"/>
            </g>
        </g>
    </g>
</svg>
