<?xml version="1.0" encoding="UTF-8" standalone="no"?>
<!DOCTYPE svg PUBLIC "-//W3C//DTD SVG 1.1//EN" "http://www.w3.org/Graphics/SVG/1.1/DTD/svg11.dtd">
<svg width="100%" height="100%" viewBox="0 0 200 150" version="1.1" xmlns="http://www.w3.org/2000/svg" xmlns:xlink="http://www.w3.org/1999/xlink" xml:space="preserve" xmlns:serif="http://www.serif.com/" style="fill-rule:evenodd;clip-rule:evenodd;stroke-linejoin:round;stroke-miterlimit:2;">
    <g transform="matrix(1,0,0,1,0,-53043)">
        <g transform="matrix(0.016994,0,0,0.026911,263.131957,53000.561895)">
            <g transform="matrix(8.819694,0,0,5.569544,-80307.148395,-35436.185669)">
                <g>
                    <g transform="matrix(0.18,0,0,0.18,-1672.9219,-26.960205)">
                        <rect x="52443" y="37070" width="1390" height="1390" style="fill:rgb(38,38,38);"/>
                    </g>
                    <g transform="matrix(0.18,0,0,0.18,-1422.7219,223.239795)">
                        <rect x="52443" y="37070" width="1390" height="1390" style="fill:rgb(38,38,38);"/>
                    </g>
                    <g transform="matrix(0.18,0,0,0.18,-1172.5219,-26.960205)">
                        <rect x="52443" y="37070" width="1390" height="1390" style="fill:rgb(38,38,38);"/>
                    </g>
                    <g transform="matrix(0.18,0,0,0.18,-1923.1219,223.239795)">
                        <rect x="52443" y="37070" width="1390" height="1390" style="fill:rgb(38,38,38);"/>
                    </g>
                    <g transform="matrix(0.18,0,0,0.18,-1672.9219,473.439795)">
                        <rect x="52443" y="37070" width="1390" height="1390" style="fill:rgb(38,38,38);"/>
                    </g>
                    <g transform="matrix(0.18,0,0,0.18,-1422.7219,723.639795)">
                        <rect x="52443" y="37070" width="1390" height="1390" style="fill:rgb(38,38,38);"/>
                    </g>
                    <g transform="matrix(0.18,0,0,0.18,-1172.5219,473.439795)">
                        <rect x="52443" y="37070" width="1390" height="1390" style="fill:rgb(38,38,38);"/>
                    </g>
                    <g transform="matrix(0.18,0,0,0.18,-1923.1219,723.639795)">
                        <rect x="52443" y="37070" width="1390" height="1390" style="fill:rgb(38,38,38);"/>
                    </g>
                </g>
                <g transform="matrix(1,0,0,1,478.862152,258.088397)">
                    <g transform="matrix(0.127279,0.127279,-0.127279,0.127279,6194.611178,-4335.415748)">
                        <path d="M50686.355,36672.01L50686.355,38125.067C50686.355,38191.411 50632.492,38245.274 50566.148,38245.274L49113.091,38245.274C49046.747,38245.274 48992.884,38191.411 48992.884,38125.067L48992.884,36672.01C48992.884,36605.666 49046.747,36551.803 49113.091,36551.803L50566.148,36551.803C50632.492,36551.803 50686.355,36605.666 50686.355,36672.01Z" style="fill:rgb(74,156,244);"/>
                    </g>
                    <g transform="matrix(0.127279,0.127279,-0.127279,0.127279,5954.524332,-4095.6099)">
                        <path d="M50686.355,36672.01L50686.355,38125.067C50686.355,38191.411 50632.492,38245.274 50566.148,38245.274L49113.091,38245.274C49046.747,38245.274 48992.884,38191.411 48992.884,38125.067L48992.884,36672.01C48992.884,36605.666 49046.747,36551.803 49113.091,36551.803L50566.148,36551.803C50632.492,36551.803 50686.355,36605.666 50686.355,36672.01Z" style="fill:rgb(1,85,187);"/>
                    </g>
                    <g transform="matrix(0.127279,0.127279,-0.127279,0.127279,5714.718484,-4335.696746)">
                        <path d="M50686.355,36672.01L50686.355,38125.067C50686.355,38191.411 50632.492,38245.274 50566.148,38245.274L49113.091,38245.274C49046.747,38245.274 48992.884,38191.411 48992.884,38125.067L48992.884,36672.01C48992.884,36605.666 49046.747,36551.803 49113.091,36551.803L50566.148,36551.803C50632.492,36551.803 50686.355,36605.666 50686.355,36672.01Z" style="fill:rgb(1,85,187);"/>
                    </g>
                </g>
            </g>
        </g>
        <g transform="matrix(0.016994,0,0,0.026911,263.131957,53000.561895)">
            <g transform="matrix(58.845,0,0,37.16,-15484,-1969500.88)">
                <rect x="0" y="53043" width="200" height="150" style="fill:none;"/>
            </g>
        </g>
    </g>
</svg>
