<?xml version="1.0" encoding="UTF-8" standalone="no"?>
<!DOCTYPE svg PUBLIC "-//W3C//DTD SVG 1.1//EN" "http://www.w3.org/Graphics/SVG/1.1/DTD/svg11.dtd">
<svg width="100%" height="100%" viewBox="0 0 32 32" version="1.1" xmlns="http://www.w3.org/2000/svg" xmlns:xlink="http://www.w3.org/1999/xlink" xml:space="preserve" xmlns:serif="http://www.serif.com/" style="fill-rule:evenodd;clip-rule:evenodd;stroke-linejoin:round;stroke-miterlimit:2;">
    <g transform="matrix(1,0,0,1,-13,-53224)">
        <g id="Logo">
        </g>
        <g id="Mesa-de-trabajo3" serif:id="Mesa de trabajo3" transform="matrix(0.421053,0,0,0.581818,7.526316,22257.309091)">
            <rect x="13" y="53224" width="76" height="55" style="fill:none;"/>
            <clipPath id="_clip1">
                <rect x="13" y="53224" width="76" height="55"/>
            </clipPath>
            <g clip-path="url(#_clip1)">
                <g transform="matrix(0.075939,0,0,0.054956,-557.806331,52858.781986)">
                    <g transform="matrix(1.120658,0,0,1.120658,-430.676815,-572.998177)">
                        <g transform="matrix(0.127279,0.127279,-0.127279,0.127279,6194.611178,-4335.415748)">
                            <path d="M50686.355,36672.01L50686.355,38125.067C50686.355,38191.411 50632.492,38245.274 50566.148,38245.274L49113.091,38245.274C49046.747,38245.274 48992.884,38191.411 48992.884,38125.067L48992.884,36672.01C48992.884,36605.666 49046.747,36551.803 49113.091,36551.803L50566.148,36551.803C50632.492,36551.803 50686.355,36605.666 50686.355,36672.01Z" style="fill:rgb(74,156,244);"/>
                        </g>
                        <g transform="matrix(0.127279,0.127279,-0.127279,0.127279,5954.524332,-4095.6099)">
                            <path d="M50686.355,36672.01L50686.355,38125.067C50686.355,38191.411 50632.492,38245.274 50566.148,38245.274L49113.091,38245.274C49046.747,38245.274 48992.884,38191.411 48992.884,38125.067L48992.884,36672.01C48992.884,36605.666 49046.747,36551.803 49113.091,36551.803L50566.148,36551.803C50632.492,36551.803 50686.355,36605.666 50686.355,36672.01Z" style="fill:rgb(1,85,187);"/>
                        </g>
                        <g transform="matrix(0.127279,0.127279,-0.127279,0.127279,5714.718484,-4335.696746)">
                            <path d="M50686.355,36672.01L50686.355,38125.067C50686.355,38191.411 50632.492,38245.274 50566.148,38245.274L49113.091,38245.274C49046.747,38245.274 48992.884,38191.411 48992.884,38125.067L48992.884,36672.01C48992.884,36605.666 49046.747,36551.803 49113.091,36551.803L50566.148,36551.803C50632.492,36551.803 50686.355,36605.666 50686.355,36672.01Z" style="fill:rgb(1,85,187);"/>
                        </g>
                    </g>
                </g>
            </g>
        </g>
    </g>
</svg>
